<svg xmlns="http://www.w3.org/2000/svg" width="200" height="57" viewBox="0 0 200 57">
  <g id="グループ_2221" data-name="グループ 2221" transform="translate(20272 24048)">
    <path id="パス_20" data-name="パス 20" d="M268.686,125.029h-.754a.206.206,0,0,0-.2.162,4.612,4.612,0,0,1-9.027,0,.2.2,0,0,0-.2-.162h-.722a.2.2,0,0,0-.2.228,6.457,6.457,0,0,0,1.786,4.013,5.3,5.3,0,0,0,3.845,1.45,5.366,5.366,0,0,0,3.871-1.45,6.4,6.4,0,0,0,1.8-4.013.184.184,0,0,0-.046-.161.2.2,0,0,0-.151-.067" transform="translate(-20433.961 -24126.443)" fill="#ee7800"/>
    <path id="パス_21" data-name="パス 21" d="M261.552,116.117a1.565,1.565,0,0,0,1.1-.465,1.56,1.56,0,1,0-2.209-.009,1.505,1.505,0,0,0,1.1.473" transform="translate(-20435.48 -24118.869)" fill="#ee7800"/>
    <path id="パス_22" data-name="パス 22" d="M279.216,115.965a1.574,1.574,0,0,0,1.1-2.682,1.506,1.506,0,0,0-1.1-.462,1.575,1.575,0,0,0-1.559,1.571,1.537,1.537,0,0,0,.454,1.111,1.49,1.49,0,0,0,1.1.462" transform="translate(-20446.584 -24118.785)" fill="#ee7800"/>
    <path id="パス_23" data-name="パス 23" d="M255.354,95.207a10.42,10.42,0,1,0,10.377,10.42,10.413,10.413,0,0,0-10.377-10.42m0,18.981a8.563,8.563,0,1,1,8.53-8.561,8.558,8.558,0,0,1-8.53,8.561" transform="translate(-20426.031 -24107.734)" fill="#ee7800"/>
    <path id="パス_24" data-name="パス 24" d="M20.7,31.221l-2.867,2.793a8.513,8.513,0,0,0-6.333-2.83A7.318,7.318,0,0,0,6.218,33.24,6.679,6.679,0,0,0,4.1,38.234a6.841,6.841,0,0,0,2.2,5.15A7.538,7.538,0,0,0,11.738,45.5a6.878,6.878,0,0,0,3.555-.856,6,6,0,0,0,2.323-2.666H11.411V38.168H22.2l.033.886a10.674,10.674,0,0,1-5.222,9.056,10.8,10.8,0,0,1-5.421,1.3A12.234,12.234,0,0,1,5.65,47.985a10.522,10.522,0,0,1-4.132-4.062A11.246,11.246,0,0,1,0,38.234a10.5,10.5,0,0,1,2.811-7.289,11.169,11.169,0,0,1,8.657-3.688,13.379,13.379,0,0,1,5.222,1.023A11.939,11.939,0,0,1,20.7,31.221" transform="translate(-20272 -24065.102)" fill="#a0a0a0"/>
    <path id="パス_25" data-name="パス 25" d="M75.054,31.185a6.758,6.758,0,0,0-4.993,2.031,7.019,7.019,0,0,0-2.024,5.162,6.679,6.679,0,0,0,2.554,5.529A7.041,7.041,0,0,0,75.127,45.5a6.687,6.687,0,0,0,4.93-2.06,7.329,7.329,0,0,0-.016-10.173,6.75,6.75,0,0,0-4.987-2.08m.053-3.927a11.107,11.107,0,0,1,11.076,11.15,10.609,10.609,0,0,1-3.22,7.816,11.142,11.142,0,0,1-19.01-7.894,10.908,10.908,0,0,1,5.562-9.584,11.16,11.16,0,0,1,5.592-1.487" transform="translate(-20312.213 -24065.102)" fill="#a0a0a0"/>
    <path id="パス_26" data-name="パス 26" d="M138.064,31.185a6.744,6.744,0,0,0-4.991,2.031,7.019,7.019,0,0,0-2.023,5.162,6.684,6.684,0,0,0,2.545,5.529,7.055,7.055,0,0,0,4.544,1.591,6.68,6.68,0,0,0,4.93-2.06,7.349,7.349,0,0,0-.017-10.173,6.753,6.753,0,0,0-4.987-2.08m.05-3.927a11.112,11.112,0,0,1,11.079,11.15,10.577,10.577,0,0,1-3.223,7.816,11.292,11.292,0,0,1-15.824-.1,11.038,11.038,0,0,1,2.381-17.383,11.131,11.131,0,0,1,5.587-1.487" transform="translate(-20351.83 -24065.102)" fill="#a0a0a0"/>
    <path id="パス_27" data-name="パス 27" d="M195.554,32.565v13.3h1.921a9.983,9.983,0,0,0,4.114-.63,4.868,4.868,0,0,0,2.085-2.127,7.532,7.532,0,0,0,.813-3.67,6.858,6.858,0,0,0-1.934-5.2c-1.162-1.117-3.025-1.67-5.594-1.67Zm-4.027-3.914h4.844c3.131,0,5.454.376,6.975,1.142A8.991,8.991,0,0,1,207.1,33.5,12.777,12.777,0,0,1,207.75,44a9.542,9.542,0,0,1-2.275,3.4,8.18,8.18,0,0,1-3.156,1.866,23.028,23.028,0,0,1-5.87.51h-4.921Z" transform="translate(-20392.428 -24065.977)" fill="#a0a0a0"/>
    <path id="パス_28" data-name="パス 28" d="M264.205,5.018,259.03,8.893q-2.722-3.185-5.55-3.186a3.837,3.837,0,0,0-2.254.622,1.743,1.743,0,0,0-.87,1.4,2.179,2.179,0,0,0,.62,1.467,45.753,45.753,0,0,0,5.122,3.976q4,2.818,4.849,3.555a12.535,12.535,0,0,1,3.005,3.45,7.5,7.5,0,0,1,.886,3.613,7.675,7.675,0,0,1-3.135,6.283,12.806,12.806,0,0,1-8.169,2.476,13.915,13.915,0,0,1-6.859-1.619,13.744,13.744,0,0,1-5-5.1l5.882-2.992q2.649,4.122,6.1,4.125a5.094,5.094,0,0,0,3.025-.886,2.522,2.522,0,0,0,1.225-2.048A3.258,3.258,0,0,0,257,21.92a26.854,26.854,0,0,0-4.077-3.223q-6-4.139-7.747-6.374a7.275,7.275,0,0,1-1.748-4.486,6.866,6.866,0,0,1,2.922-5.529A11.252,11.252,0,0,1,253.554,0a13.162,13.162,0,0,1,5.25,1.076,18.577,18.577,0,0,1,5.4,3.943" transform="translate(-20423.959 -24048)" fill="#ee7800"/>
    <path id="パス_29" data-name="パス 29" d="M312.842,2.059h5.607l7.265,21.635,7.291-21.635h5.7l5.156,31.016h-5.706l-3.3-19.592-6.6,19.592h-5.116l-6.576-19.592-3.406,19.592h-5.711Z" transform="translate(-20465.314 -24049.291)" fill="#ee7800"/>
    <rect id="長方形_5" data-name="長方形 5" width="5.865" height="31.016" transform="translate(-20118.281 -24047.232)" fill="#ee7800"/>
    <path id="パス_30" data-name="パス 30" d="M444.575,2.059h5.865V27.421h8.683v5.654H444.575Z" transform="translate(-20551.539 -24049.291)" fill="#ee7800"/>
    <path id="パス_31" data-name="パス 31" d="M492.992,2.059H509.88v5.71H498.854v5.645H509.88v5.71H498.854v8.121H509.88v5.83H492.992Z" transform="translate(-20581.982 -24049.291)" fill="#ee7800"/>
    <path id="パス_32" data-name="パス 32" d="M208.673,99.851l-2.562,2.438a7.93,7.93,0,0,0-5.882-2.764,6.466,6.466,0,0,0-6.526,6.555,6.988,6.988,0,0,0,.837,3.432,5.922,5.922,0,0,0,2.364,2.343,6.778,6.778,0,0,0,3.4.862,6.906,6.906,0,0,0,2.9-.6,10.333,10.333,0,0,0,2.9-2.17l2.479,2.6a13.448,13.448,0,0,1-4.023,2.908,10.947,10.947,0,0,1-4.323.808,9.805,9.805,0,0,1-10.2-10.176,10.106,10.106,0,0,1,1.3-5.126,9.675,9.675,0,0,1,3.727-3.613,10.525,10.525,0,0,1,5.222-1.364,11.041,11.041,0,0,1,8.378,3.87" transform="translate(-20391.496 -24108.219)" fill="#a0a0a0"/>
    <path id="パス_33" data-name="パス 33" d="M306.185,97.286h3.527l4.446,13.465,4.511-13.465h3.567l3.181,19.3h-3.538L319.851,104.4l-4.088,12.188H312.52L308.5,104.4l-2.123,12.188h-3.55Z" transform="translate(-20462.41 -24109.037)" fill="#a0a0a0"/>
    <path id="パス_34" data-name="パス 34" d="M373.382,104.826h1.2a6.584,6.584,0,0,0,1.933-.193,1.722,1.722,0,0,0,.857-.651,1.862,1.862,0,0,0,.313-1.107,1.76,1.76,0,0,0-.874-1.632,5.04,5.04,0,0,0-2.365-.383h-1.059Zm-3.616-7.54h3.9a12.981,12.981,0,0,1,4.544.581,4.7,4.7,0,0,1,2.2,1.9,5.851,5.851,0,0,1,.8,3.122,5.281,5.281,0,0,1-1.05,3.355,5.537,5.537,0,0,1-2.878,1.862,16.537,16.537,0,0,1-3.9.3v8.187h-3.616Z" transform="translate(-20504.502 -24109.037)" fill="#a0a0a0"/>
    <path id="パス_35" data-name="パス 35" d="M405.232,102.428l-2.621,6.646h5.211Zm-1.841-5.142h3.675l7.385,19.3h-3.8l-1.492-3.973h-7.894l-1.543,3.973h-3.8Z" transform="translate(-20520.945 -24109.037)" fill="#a0a0a0"/>
    <path id="パス_36" data-name="パス 36" d="M451.75,97.286h3.461l8.311,12.7v-12.7h3.624v19.3h-3.484l-8.291-12.657v12.657H451.75Z" transform="translate(-20556.051 -24109.037)" fill="#a0a0a0"/>
    <path id="パス_37" data-name="パス 37" d="M498.467,97.286H502.4l3.57,6.935,3.581-6.935h3.878l-5.636,10.948v8.356H504.1v-8.356Z" transform="translate(-20585.426 -24109.037)" fill="#a0a0a0"/>
    <rect id="長方形_6" data-name="長方形 6" width="200" height="56.313" transform="translate(-20272 -24048)" fill="none"/>
  </g>
</svg>
